# Blender v2.91.0 OBJ File: 'termprojPrefabs.blend'
# www.blender.org
mtllib left90.mtl
o Plane.037_Plane.107
v 56.127514 0.000000 -17.804623
v 56.127506 1.000000 -23.323734
v 56.127506 0.000000 -23.323734
v 56.127514 1.000000 -17.804623
v 56.127506 1.000000 -22.843580
v 56.127506 0.000000 -22.843580
v 56.190182 0.000000 -17.800516
v 56.190182 1.000000 -17.800516
v 56.910564 1.000000 -23.272411
v 56.847893 1.000000 -22.796366
v 56.847893 0.000000 -22.796366
v 56.251781 0.000000 -17.788265
v 56.251781 1.000000 -17.788265
v 57.680225 0.000000 -23.119318
v 57.680225 1.000000 -23.119318
v 57.555954 1.000000 -22.655525
v 57.555954 0.000000 -22.655525
v 56.311253 0.000000 -17.768078
v 56.311253 1.000000 -17.768078
v 58.423321 1.000000 -22.867075
v 58.239574 1.000000 -22.423471
v 58.239574 0.000000 -22.423471
v 56.367580 0.000000 -17.740299
v 56.367580 1.000000 -17.740299
v 59.127132 0.000000 -22.519995
v 59.127132 1.000000 -22.519995
v 58.887054 1.000000 -22.104170
v 58.887054 0.000000 -22.104170
v 56.419800 0.000000 -17.705408
v 56.419800 1.000000 -17.705408
v 59.779617 1.000000 -22.084019
v 59.487320 1.000000 -21.703089
v 59.487320 0.000000 -21.703089
v 56.467018 0.000000 -17.664000
v 56.467018 1.000000 -17.664000
v 60.369617 0.000000 -21.566607
v 60.369617 1.000000 -21.566607
v 60.030098 1.000000 -21.227087
v 60.030098 0.000000 -21.227087
v 56.508430 0.000000 -17.616781
v 56.508430 1.000000 -17.616781
v 60.887035 1.000000 -20.976610
v 60.506104 1.000000 -20.684311
v 60.506104 0.000000 -20.684311
v 56.543320 0.000000 -17.564562
v 56.543320 1.000000 -17.564562
v 61.323013 0.000000 -20.324125
v 61.323013 1.000000 -20.324125
v 60.907188 1.000000 -20.084047
v 60.907188 0.000000 -20.084047
v 56.571098 0.000000 -17.508234
v 56.571098 1.000000 -17.508234
v 61.670097 0.000000 -19.620314
v 61.670097 1.000000 -19.620314
v 61.226494 1.000000 -19.436567
v 61.226494 0.000000 -19.436567
v 56.591290 0.000000 -17.448763
v 56.591290 1.000000 -17.448763
v 61.922344 1.000000 -18.877222
v 61.458553 1.000000 -18.752949
v 61.458553 0.000000 -18.752949
v 56.603542 0.000000 -17.387165
v 56.603542 1.000000 -17.387165
v 62.075443 0.000000 -18.107561
v 62.075443 1.000000 -18.107561
v 61.599396 1.000000 -18.044888
v 61.599396 0.000000 -18.044888
v 56.607651 0.000000 -17.324495
v 56.607651 1.000000 -17.324495
v 56.127495 1.000000 -17.324495
v 56.127495 0.000000 -17.324495
v 62.126770 0.000000 -17.324501
v 62.126770 1.000000 -17.324501
v 61.646614 1.000000 -17.324501
v 61.646614 0.000000 -17.324501
v 56.910564 0.000000 -23.272411
v 56.127316 0.000000 -17.323761
v 58.423321 0.000000 -22.867075
v 59.779617 0.000000 -22.084019
v 56.126980 0.000000 -17.323957
v 60.887035 0.000000 -20.976610
v 61.922344 0.000000 -18.877222
v 56.126759 0.000000 -17.324495
vt 0.375000 0.750000
vt 0.625000 0.750000
vt 0.625000 1.000000
vt 0.375000 1.000000
vt 0.375000 0.750000
vt 0.625000 0.750000
vt 0.625000 1.000000
vt 0.375000 1.000000
vt 0.625000 1.000000
vt 0.375000 0.750000
vt 0.375000 0.750000
vt 0.625000 0.750000
vt 0.625000 0.750000
vt 0.625000 1.000000
vt 0.625000 1.000000
vt 0.375000 1.000000
vt 0.375000 1.000000
vt 0.625000 1.000000
vt 0.625000 1.000000
vt 0.375000 1.000000
vt 0.375000 1.000000
vt 0.375000 1.000000
vt 0.625000 1.000000
vt 0.625000 1.000000
vt 0.375000 1.000000
vt 0.375000 1.000000
vt 0.375000 0.750000
vt 0.375000 0.750000
vt 0.625000 0.750000
vt 0.625000 1.000000
vt 0.625000 1.000000
vt 0.375000 1.000000
vt 0.625000 0.750000
vt 0.375000 0.750000
vt 0.375000 0.750000
vt 0.625000 0.750000
vt 0.625000 0.750000
vt 0.625000 1.000000
vt 0.625000 1.000000
vt 0.375000 1.000000
vt 0.375000 1.000000
vt 0.375000 1.000000
vt 0.375000 1.000000
vt 0.625000 1.000000
vt 0.375000 1.000000
vt 0.375000 1.000000
vt 0.625000 1.000000
vt 0.625000 1.000000
vt 0.375000 1.000000
vt 0.375000 0.750000
vt 0.375000 0.750000
vt 0.625000 1.000000
vt 0.625000 0.750000
vt 0.625000 1.000000
vt 0.625000 1.000000
vt 0.375000 0.750000
vt 0.625000 0.750000
vt 0.625000 0.750000
vt 0.375000 1.000000
vt 0.625000 0.750000
vt 0.625000 1.000000
vt 0.625000 1.000000
vt 0.625000 1.000000
vt 0.375000 1.000000
vt 0.375000 1.000000
vt 0.375000 1.000000
vt 0.625000 1.000000
vt 0.375000 1.000000
vt 0.375000 1.000000
vt 0.375000 0.750000
vt 0.375000 0.750000
vt 0.375000 1.000000
vt 0.375000 0.750000
vt 0.375000 1.000000
vt 0.625000 1.000000
vt 0.625000 0.750000
vt 0.375000 1.000000
vt 0.625000 1.000000
vt 0.625000 1.000000
vt 0.625000 0.750000
vt 0.000000 0.000000
vt 0.000000 0.000000
vt 0.000000 0.000000
vt 0.000000 0.000000
vt 0.000000 0.000000
vt 0.000000 0.000000
vt 0.000000 0.000000
vt 0.000000 0.000000
vt 0.000000 0.000000
vt 0.000000 0.000000
vt 0.000000 0.000000
vt 0.000000 0.000000
vt 0.000000 0.000000
vt 0.000000 0.000000
vt 0.000000 0.000000
vt 0.000000 0.000000
vn -1.0000 0.0000 -0.0000
vn 0.0000 1.0000 0.0000
vn -0.1951 0.0000 0.9808
vn 0.0000 -1.0000 0.0000
vn 0.0654 0.0000 -0.9979
vn -0.0654 0.0000 0.9979
vn 0.3214 0.0000 -0.9469
vn 0.1951 0.0000 -0.9808
vn 0.4423 0.0000 -0.8969
vn -0.3214 0.0000 0.9469
vn -0.4423 0.0000 0.8969
vn -0.6593 0.0000 0.7518
vn 0.5556 0.0000 -0.8315
vn -0.5556 0.0000 0.8315
vn 0.7518 0.0000 -0.6593
vn 0.6593 0.0000 -0.7518
vn 0.8315 0.0000 -0.5556
vn 0.7518 0.0000 -0.6594
vn -0.7518 0.0000 0.6593
vn -0.8969 0.0000 0.4423
vn 0.8315 0.0000 -0.5555
vn -0.8315 0.0000 0.5556
vn 0.9469 0.0000 -0.3215
vn 0.8969 0.0000 -0.4423
vn 0.9808 0.0000 -0.1951
vn -0.9469 0.0000 0.3214
vn 0.9469 0.0000 -0.3214
vn -0.9808 0.0000 0.1951
vn 0.0000 0.0000 1.0000
vn 0.9979 0.0000 -0.0654
vn -0.9979 0.0000 0.0654
usemtl None
s off
f 71/1/1 70/2/1 4/3/1 1/4/1
f 6/5/1 5/6/1 2/7/1 3/8/1
f 70/2/2 8/9/2 4/3/2
f 11/10/3 17/11/3 16/12/3 10/13/3
f 10/13/2 16/12/2 15/14/2 9/15/2
f 3/8/4 76/16/4 11/10/4 6/5/4
f 2/7/5 9/15/5 76/16/5 3/8/5
f 1/4/4 7/17/4 71/1/4
f 4/3/5 8/9/5 7/17/5 1/4/5
f 5/6/2 10/13/2 9/15/2 2/7/2
f 6/5/6 11/10/6 10/13/6 5/6/6
f 13/18/7 19/19/7 18/20/7 12/21/7
f 12/21/4 18/20/4 71/1/4
f 70/2/2 13/18/2 8/9/2
f 76/16/4 14/22/4 17/11/4 11/10/4
f 9/15/8 15/14/8 14/22/8 76/16/8
f 7/17/4 12/21/4 71/1/4
f 8/9/8 13/18/8 12/21/8 7/17/8
f 20/23/9 26/24/9 25/25/9 78/26/9
f 78/26/4 25/25/4 28/27/4 22/28/4
f 16/12/2 21/29/2 20/23/2 15/14/2
f 17/11/10 22/28/10 21/29/10 16/12/10
f 70/2/2 19/19/2 13/18/2
f 14/22/4 78/26/4 22/28/4 17/11/4
f 15/14/7 20/23/7 78/26/7 14/22/7
f 70/2/2 30/30/2 24/31/2
f 18/20/4 23/32/4 71/1/4
f 19/19/9 24/31/9 23/32/9 18/20/9
f 21/29/2 27/33/2 26/24/2 20/23/2
f 22/28/11 28/27/11 27/33/11 21/29/11
f 70/2/2 24/31/2 19/19/2
f 33/34/12 39/35/12 38/36/12 32/37/12
f 32/37/2 38/36/2 37/38/2 31/39/2
f 25/25/4 79/40/4 33/34/4 28/27/4
f 26/24/13 31/39/13 79/40/13 25/25/13
f 23/32/4 29/41/4 71/1/4
f 24/31/13 30/30/13 29/41/13 23/32/13
f 27/33/2 32/37/2 31/39/2 26/24/2
f 28/27/14 33/34/14 32/37/14 27/33/14
f 34/42/4 40/43/4 71/1/4
f 37/38/15 42/44/15 81/45/15 36/46/15
f 70/2/2 35/47/2 30/30/2
f 79/40/4 36/46/4 39/35/4 33/34/4
f 31/39/16 37/38/16 36/46/16 79/40/16
f 29/41/4 34/42/4 71/1/4
f 30/30/16 35/47/16 34/42/16 29/41/16
f 42/44/17 48/48/17 47/49/17 81/45/17
f 81/45/4 47/49/4 50/50/4 44/51/4
f 35/47/18 41/52/18 40/43/18 34/42/18
f 38/36/2 43/53/2 42/44/2 37/38/2
f 39/35/19 44/51/19 43/53/19 38/36/19
f 70/2/2 41/52/2 35/47/2
f 36/46/4 81/45/4 44/51/4 39/35/4
f 70/2/2 52/54/2 46/55/2
f 50/50/20 56/56/20 55/57/20 49/58/20
f 40/43/4 45/59/4 71/1/4
f 41/52/21 46/55/21 45/59/21 40/43/21
f 43/53/2 49/58/2 48/48/2 42/44/2
f 44/51/22 50/50/22 49/58/22 43/53/22
f 70/2/2 46/55/2 41/52/2
f 55/57/2 60/60/2 59/61/2 54/62/2
f 52/54/23 58/63/23 57/64/23 51/65/23
f 47/49/4 53/66/4 56/56/4 50/50/4
f 48/48/24 54/62/24 53/66/24 47/49/24
f 45/59/4 51/65/4 71/1/4
f 46/55/24 52/54/24 51/65/24 45/59/24
f 49/58/2 55/57/2 54/62/2 48/48/2
f 59/61/25 65/67/25 64/68/25 82/69/25
f 82/69/4 64/68/4 67/70/4 61/71/4
f 56/56/26 61/71/26 60/60/26 55/57/26
f 70/2/2 58/63/2 52/54/2
f 53/66/4 82/69/4 61/71/4 56/56/4
f 54/62/27 59/61/27 82/69/27 53/66/27
f 51/65/4 57/64/4 71/1/4
f 64/68/4 72/72/4 75/73/4 67/70/4
f 57/64/4 62/74/4 71/1/4
f 58/63/25 63/75/25 62/74/25 57/64/25
f 60/60/2 66/76/2 65/67/2 59/61/2
f 61/71/28 67/70/28 66/76/28 60/60/28
f 70/2/2 63/75/2 58/63/2
f 71/1/29 68/77/29 69/78/29 70/2/29
f 75/73/29 72/72/29 73/79/29 74/80/29
f 65/67/30 73/79/30 72/72/30 64/68/30
f 62/74/4 68/77/4 71/1/4
f 63/75/30 69/78/30 68/77/30 62/74/30
f 66/76/2 74/80/2 73/79/2 65/67/2
f 67/70/31 75/73/31 74/80/31 66/76/31
f 70/2/2 69/78/2 63/75/2
f 3/81/2 77/82/2 76/83/2
f 76/83/2 77/82/2 14/84/2
f 14/84/2 77/82/2 80/85/2 78/86/2
f 78/86/2 80/85/2 25/87/2
f 25/87/2 80/85/2 79/88/2
f 79/88/2 80/85/2 36/89/2
f 36/89/2 80/85/2 81/90/2
f 81/90/2 80/85/2 47/91/2
f 47/91/2 80/85/2 83/92/2 53/93/2
f 53/93/2 83/92/2 82/94/2
f 82/94/2 83/92/2 64/95/2
f 64/95/2 83/92/2 72/96/2
