# Blender v2.91.0 OBJ File: 'termprojPrefabs.blend'
# www.blender.org
mtllib startstraight.mtl
o Plane.002_Plane.110
v 45.282650 0.000000 8.524852
v 45.282650 0.000000 14.524852
v 45.763538 0.000000 8.524852
v 45.763542 0.000000 14.524852
v 45.283386 0.000000 14.524852
v 51.282650 1.000000 8.524850
v 51.282650 1.000000 14.524850
v 50.802498 0.000000 8.524850
v 50.802498 0.000000 14.524850
v 50.802498 1.000000 14.524850
v 45.282654 0.000000 2.524850
v 51.282654 0.000000 8.524849
v 45.763542 0.000000 2.524850
v 45.763542 1.000000 2.524850
v 45.763546 1.000000 8.524850
v 45.283390 0.000000 2.524850
v 45.283390 1.000000 2.524850
v 45.283394 0.000000 8.524851
v 45.283394 1.000000 8.524851
v 51.282654 0.000000 2.524848
v 51.282654 1.000000 2.524848
v 50.802502 0.000000 2.524848
v 50.802502 1.000000 2.524848
v 50.802502 1.000000 8.524849
v 45.763542 1.000000 14.524853
v 45.763542 0.000000 20.524853
v 45.763542 1.000000 20.524853
v 45.283386 1.000000 14.524853
v 45.283390 0.000000 20.524853
v 51.282650 0.000000 14.524851
v 50.802502 1.000000 20.524851
v 51.282654 0.000000 20.524849
v 45.282654 0.000000 20.524853
v 45.282654 0.000000 26.524853
v 45.763546 0.000000 26.524853
v 45.763546 1.000000 26.524853
v 45.283390 1.000000 20.524853
v 45.283394 0.000000 26.524853
v 45.283394 1.000000 26.524853
v 51.282654 1.000000 20.524849
v 51.282654 0.000000 26.524849
v 50.802502 0.000000 20.524849
v 50.802502 0.000000 26.524849
v 51.282650 0.000000 32.524849
v 45.282650 0.000000 32.524853
v 45.763542 0.000000 32.524849
v 45.763542 1.000000 32.524849
v 45.283390 0.000000 32.524853
v 45.283390 1.000000 32.524853
v 51.282650 1.000000 26.524849
v 51.282650 1.000000 32.524849
v 50.802498 1.000000 26.524849
v 50.802498 0.000000 32.524849
v 50.802498 1.000000 32.524849
vt 0.000000 0.000000
vt 1.000000 0.000000
vt 1.000000 1.000000
vt 0.000000 1.000000
vt 0.375000 0.000000
vt 0.625000 0.000000
vt 0.625000 0.250000
vt 0.375000 0.250000
vt 0.625000 0.500000
vt 0.375000 0.500000
vt 0.625000 0.750000
vt 0.375000 0.750000
vt 0.625000 1.000000
vt 0.375000 1.000000
vt 0.125000 0.500000
vt 0.125000 0.750000
vt 0.875000 0.500000
vt 0.875000 0.750000
vt 0.375000 0.000000
vt 0.625000 0.000000
vt 0.625000 0.250000
vt 0.375000 0.250000
vt 0.625000 0.500000
vt 0.375000 0.500000
vt 0.625000 0.750000
vt 0.375000 0.750000
vt 0.625000 1.000000
vt 0.375000 1.000000
vt 0.125000 0.500000
vt 0.125000 0.750000
vt 0.875000 0.500000
vt 0.875000 0.750000
vt 0.000000 0.000000
vt 1.000000 0.000000
vt 1.000000 1.000000
vt 0.000000 1.000000
vt 0.375000 0.000000
vt 0.625000 0.000000
vt 0.625000 0.250000
vt 0.375000 0.250000
vt 0.375000 0.500000
vt 0.625000 0.500000
vt 0.625000 0.750000
vt 0.375000 0.750000
vt 0.625000 1.000000
vt 0.375000 1.000000
vt 0.125000 0.500000
vt 0.125000 0.750000
vt 0.875000 0.500000
vt 0.875000 0.750000
vt 0.375000 0.000000
vt 0.625000 0.000000
vt 0.625000 0.250000
vt 0.375000 0.250000
vt 0.375000 0.500000
vt 0.625000 0.500000
vt 0.625000 0.750000
vt 0.375000 0.750000
vt 0.625000 1.000000
vt 0.375000 1.000000
vt 0.125000 0.500000
vt 0.125000 0.750000
vt 0.875000 0.500000
vt 0.875000 0.750000
vt 0.000000 0.000000
vt 1.000000 0.000000
vt 1.000000 1.000000
vt 0.000000 1.000000
vt 0.375000 0.000000
vt 0.625000 0.000000
vt 0.625000 0.250000
vt 0.375000 0.250000
vt 0.625000 0.500000
vt 0.375000 0.500000
vt 0.625000 0.750000
vt 0.375000 0.750000
vt 0.125000 0.500000
vt 0.125000 0.750000
vt 0.875000 0.500000
vt 0.875000 0.750000
vt 0.375000 0.000000
vt 0.625000 0.000000
vt 0.625000 0.250000
vt 0.375000 0.250000
vt 0.625000 0.500000
vt 0.375000 0.500000
vt 0.625000 0.750000
vt 0.375000 0.750000
vt 0.125000 0.500000
vt 0.125000 0.750000
vt 0.875000 0.500000
vt 0.875000 0.750000
vt 0.000000 0.000000
vt 1.000000 0.000000
vt 1.000000 1.000000
vt 0.000000 1.000000
vt 0.375000 0.000000
vt 0.625000 0.000000
vt 0.625000 0.250000
vt 0.375000 0.250000
vt 0.625000 0.500000
vt 0.375000 0.500000
vt 0.625000 0.750000
vt 0.375000 0.750000
vt 0.125000 0.500000
vt 0.125000 0.750000
vt 0.875000 0.500000
vt 0.875000 0.750000
vt 0.375000 0.000000
vt 0.625000 0.000000
vt 0.625000 0.250000
vt 0.375000 0.250000
vt 0.625000 0.500000
vt 0.375000 0.500000
vt 0.625000 0.750000
vt 0.375000 0.750000
vt 0.125000 0.500000
vt 0.125000 0.750000
vt 0.875000 0.500000
vt 0.875000 0.750000
vt 0.000000 0.000000
vt 1.000000 0.000000
vt 1.000000 1.000000
vt 0.000000 1.000000
vt 0.375000 0.000000
vt 0.625000 0.000000
vt 0.625000 0.250000
vt 0.375000 0.250000
vt 0.625000 0.500000
vt 0.375000 0.500000
vt 0.625000 0.750000
vt 0.375000 0.750000
vt 0.125000 0.500000
vt 0.125000 0.750000
vt 0.875000 0.500000
vt 0.875000 0.750000
vt 0.375000 0.000000
vt 0.625000 0.000000
vt 0.625000 0.250000
vt 0.375000 0.250000
vt 0.625000 0.500000
vt 0.375000 0.500000
vt 0.625000 0.750000
vt 0.375000 0.750000
vt 0.125000 0.500000
vt 0.125000 0.750000
vt 0.875000 0.500000
vt 0.875000 0.750000
vn 0.0000 1.0000 0.0000
vn 1.0000 -0.0000 0.0000
vn 0.0000 -0.0000 1.0000
vn -1.0000 0.0000 -0.0000
vn 0.0000 -0.0000 -1.0000
vn 0.0000 -1.0000 0.0000
usemtl None
s off
f 12/1/1 1/2/1 2/3/1 30/4/1
f 3/5/2 15/6/2 25/7/2 4/8/2
f 4/8/3 25/7/3 28/9/3 5/10/3
f 5/10/4 28/9/4 19/11/4 18/12/4
f 18/12/5 19/11/5 15/13/5 3/14/5
f 4/15/6 5/10/6 18/12/6 3/16/6
f 28/9/1 25/17/1 15/18/1 19/11/1
f 12/19/2 6/20/2 7/21/2 30/22/2
f 30/22/3 7/21/3 10/23/3 9/24/3
f 9/24/4 10/23/4 24/25/4 8/26/4
f 8/26/5 24/25/5 6/27/5 12/28/5
f 30/29/6 9/24/6 8/26/6 12/30/6
f 10/23/1 7/31/1 6/32/1 24/25/1
f 20/33/1 11/34/1 1/35/1 12/36/1
f 13/37/2 14/38/2 15/39/2 3/40/2
f 18/41/4 19/42/4 17/43/4 16/44/4
f 16/44/5 17/43/5 14/45/5 13/46/5
f 3/47/6 18/41/6 16/44/6 13/48/6
f 19/42/1 15/49/1 14/50/1 17/43/1
f 20/51/2 21/52/2 6/53/2 12/54/2
f 8/55/4 24/56/4 23/57/4 22/58/4
f 22/58/5 23/57/5 21/59/5 20/60/5
f 12/61/6 8/55/6 22/58/6 20/62/6
f 24/56/1 6/63/1 21/64/1 23/57/1
f 30/65/1 2/66/1 33/67/1 32/68/1
f 4/69/2 25/70/2 27/71/2 26/72/2
f 26/72/3 27/71/3 37/73/3 29/74/3
f 29/74/4 37/73/4 28/75/4 5/76/4
f 26/77/6 29/74/6 5/76/6 4/78/6
f 37/73/1 27/79/1 25/80/1 28/75/1
f 30/81/2 7/82/2 40/83/2 32/84/2
f 32/84/3 40/83/3 31/85/3 42/86/3
f 42/86/4 31/85/4 10/87/4 9/88/4
f 32/89/6 42/86/6 9/88/6 30/90/6
f 31/85/1 40/91/1 7/92/1 10/87/1
f 32/93/1 33/94/1 34/95/1 41/96/1
f 26/97/2 27/98/2 36/99/2 35/100/2
f 35/100/3 36/99/3 39/101/3 38/102/3
f 38/102/4 39/101/4 37/103/4 29/104/4
f 35/105/6 38/102/6 29/104/6 26/106/6
f 39/101/1 36/107/1 27/108/1 37/103/1
f 32/109/2 40/110/2 50/111/2 41/112/2
f 41/112/3 50/111/3 52/113/3 43/114/3
f 43/114/4 52/113/4 31/115/4 42/116/4
f 41/117/6 43/114/6 42/116/6 32/118/6
f 52/113/1 50/119/1 40/120/1 31/115/1
f 41/121/1 34/122/1 45/123/1 44/124/1
f 35/125/2 36/126/2 47/127/2 46/128/2
f 46/128/3 47/127/3 49/129/3 48/130/3
f 48/130/4 49/129/4 39/131/4 38/132/4
f 46/133/6 48/130/6 38/132/6 35/134/6
f 49/129/1 47/135/1 36/136/1 39/131/1
f 41/137/2 50/138/2 51/139/2 44/140/2
f 44/140/3 51/139/3 54/141/3 53/142/3
f 53/142/4 54/141/4 52/143/4 43/144/4
f 44/145/6 53/142/6 43/144/6 41/146/6
f 54/141/1 51/147/1 50/148/1 52/143/1
